<svg xmlns="http://www.w3.org/2000/svg" x="0px" y="0px"
width="24" height="24"
viewBox="0 0 172 172"
style=" fill:#000000;"><g fill="none" fill-rule="nonzero" stroke="none" stroke-width="1" stroke-linecap="butt" stroke-linejoin="miter" stroke-miterlimit="10" stroke-dasharray="" stroke-dashoffset="0" font-family="none" font-weight="none" font-size="none" text-anchor="none" style="mix-blend-mode: normal"><path d="M0,172v-172h172v172z" fill="none"></path><g fill="#cccccc"><path d="M139.68701,24.97835c-1.89382,0.0447 -3.69292,0.83731 -5.00407,2.20459l-48.68294,48.68294l-48.68294,-48.68294c-1.35097,-1.38873 -3.2066,-2.17137 -5.14404,-2.1696c-2.91501,0.00361 -5.53745,1.7723 -6.63303,4.47359c-1.09558,2.70129 -0.44601,5.79702 1.64296,7.83012l48.68294,48.68294l-48.68294,48.68294c-1.87221,1.79752 -2.62639,4.46674 -1.97166,6.97824c0.65473,2.51149 2.61604,4.47281 5.12754,5.12753c2.51149,0.65473 5.18071,-0.09945 6.97824,-1.97166l48.68294,-48.68294l48.68294,48.68294c1.79752,1.87223 4.46675,2.62641 6.97825,1.97168c2.5115,-0.65472 4.47282,-2.61605 5.12755,-5.12755c0.65472,-2.5115 -0.09946,-5.18073 -1.97168,-6.97825l-48.68294,-48.68294l48.68294,-48.68294c2.13449,-2.04675 2.79281,-5.19431 1.6575,-7.92494c-1.13531,-2.73063 -3.83113,-4.48365 -6.78754,-4.41376z"></path></g></g></svg>